<svg width="17" height="22" viewBox="0 0 17 22" fill="none" xmlns="http://www.w3.org/2000/svg">
    <path d="M8.25001 0.5C6.06276 0.50258 3.96584 1.3726 2.41923 2.91922C0.872611 4.46584 0.00258913 6.56276 8.77716e-06 8.75C-0.00261089 10.5374 0.581244 12.2763 1.66201 13.7C1.66201 13.7 1.88701 13.9963 1.92376 14.039L8.25001 21.5L14.5793 14.0353C14.6123 13.9955 14.838 13.7 14.838 13.7L14.8388 13.6978C15.919 12.2747 16.5026 10.5366 16.5 8.75C16.4974 6.56276 15.6274 4.46584 14.0808 2.91922C12.5342 1.3726 10.4373 0.50258 8.25001 0.5ZM8.25001 11.75C7.65666 11.75 7.07665 11.5741 6.5833 11.2444C6.08995 10.9148 5.70543 10.4462 5.47837 9.89805C5.25131 9.34987 5.1919 8.74667 5.30765 8.16473C5.42341 7.58279 5.70913 7.04824 6.12869 6.62868C6.54825 6.20912 7.08279 5.9234 7.66474 5.80764C8.24668 5.69189 8.84988 5.7513 9.39806 5.97836C9.94624 6.20542 10.4148 6.58994 10.7444 7.08329C11.0741 7.57664 11.25 8.15666 11.25 8.75C11.249 9.54535 10.9326 10.3078 10.3702 10.8702C9.80784 11.4326 9.04535 11.749 8.25001 11.75Z" fill="white"/>
</svg>
